<svg id="Backdrop" xmlns="http://www.w3.org/2000/svg" width="1670.151" height="2141" viewBox="0 0 1670.151 2141">
  <defs>
    <clipPath id="clip-path">
      <rect id="Rectangle_51" data-name="Rectangle 51" width="2140.966" height="1670.151" fill="none"/>
    </clipPath>
  </defs>
  <g id="Backdrop-2" data-name="Backdrop" transform="translate(420.273 170.799)" opacity="0.7">
    <g id="Group_535" data-name="Group 535" transform="translate(-420.273 1970.167) rotate(-90)">
      <g id="Group_534" data-name="Group 534" clip-path="url(#clip-path)">
        <g id="Group_533" data-name="Group 533">
          <g id="Group_532" data-name="Group 532" clip-path="url(#clip-path)">
            <g id="Group_531" data-name="Group 531" opacity="0.83" style="mix-blend-mode: multiply;isolation: isolate">
              <g id="Group_530" data-name="Group 530">
                <g id="Group_529" data-name="Group 529" clip-path="url(#clip-path)">
                  <line id="Line_116" data-name="Line 116" x1="24.917" y2="114.351" transform="translate(333.705 34.034)" fill="#f7f7f7"/>
                  <path id="Path_2857" data-name="Path 2857" d="M15.187,144.7a15.179,15.179,0,0,1-14.835-18.4L25.269,11.942A15.17,15.17,0,1,1,54.913,18.4L29.993,132.754A15.173,15.173,0,0,1,15.187,144.7" transform="translate(318.531 18.861)" fill="#f7f7f7"/>
                  <line id="Line_117" data-name="Line 117" x1="82.704" y2="82.767" transform="translate(203.135 304.034)" fill="#f7f7f7"/>
                  <path id="Path_2858" data-name="Path 2858" d="M15.17,113.109A15.17,15.17,0,0,1,4.44,87.217L87.144,4.45A15.168,15.168,0,1,1,108.6,25.892L25.9,108.66a15.12,15.12,0,0,1-10.73,4.449" transform="translate(187.965 288.861)" fill="#f7f7f7"/>
                  <line id="Line_118" data-name="Line 118" x1="91.789" y2="72.562" transform="translate(206.466 586.702)" fill="#f7f7f7"/>
                  <path id="Path_2859" data-name="Path 2859" d="M15.181,102.906A15.169,15.169,0,0,1,5.763,75.837L97.548,3.273a15.17,15.17,0,0,1,18.819,23.8L24.58,99.636a15.108,15.108,0,0,1-9.4,3.269" transform="translate(191.296 571.529)" fill="#f7f7f7"/>
                  <line id="Line_119" data-name="Line 119" x1="116.426" y2="11.385" transform="translate(405.866 298.341)" fill="#f7f7f7"/>
                  <path id="Path_2860" data-name="Path 2860" d="M15.153,41.728a15.17,15.17,0,0,1-1.46-30.268L130.12.076a15.17,15.17,0,1,1,2.954,30.2L16.648,41.656a14.873,14.873,0,0,1-1.495.073" transform="translate(390.694 283.166)" fill="#f7f7f7"/>
                  <line id="Line_120" data-name="Line 120" x2="79.463" y2="85.92" transform="translate(399.173 463.342)" fill="#f7f7f7"/>
                  <path id="Path_2861" data-name="Path 2861" d="M94.639,116.262a15.129,15.129,0,0,1-11.145-4.87L4.034,25.469A15.17,15.17,0,0,1,26.31,4.871l79.463,85.92a15.171,15.171,0,0,1-11.134,25.47" transform="translate(384.002 448.172)" fill="#f7f7f7"/>
                  <line id="Line_121" data-name="Line 121" x2="79.463" y2="85.92" transform="translate(15.17 377.748)" fill="#f7f7f7"/>
                  <path id="Path_2862" data-name="Path 2862" d="M94.637,116.262a15.128,15.128,0,0,1-11.142-4.87L4.032,25.469a15.17,15.17,0,0,1,22.276-20.6l79.463,85.92a15.17,15.17,0,0,1-11.134,25.47" transform="translate(0 362.578)" fill="#f7f7f7"/>
                  <line id="Line_122" data-name="Line 122" x2="79.463" y2="85.92" transform="translate(99.388 86.145)" fill="#f7f7f7"/>
                  <path id="Path_2863" data-name="Path 2863" d="M94.637,116.262a15.128,15.128,0,0,1-11.142-4.87L4.032,25.47a15.17,15.17,0,0,1,22.276-20.6l79.463,85.92a15.17,15.17,0,0,1-11.134,25.47" transform="translate(84.218 70.973)" fill="#f7f7f7"/>
                  <line id="Line_123" data-name="Line 123" x1="24.917" y2="114.351" transform="translate(1869.7 635.069)" fill="#f7f7f7"/>
                  <path id="Path_2864" data-name="Path 2864" d="M15.187,144.7a15.179,15.179,0,0,1-14.835-18.4L25.269,11.943A15.17,15.17,0,0,1,54.913,18.4L29.993,132.754A15.173,15.173,0,0,1,15.187,144.7" transform="translate(1854.526 619.896)" fill="#f7f7f7"/>
                  <line id="Line_124" data-name="Line 124" x1="82.704" y2="82.767" transform="translate(1739.13 905.069)" fill="#f7f7f7"/>
                  <path id="Path_2865" data-name="Path 2865" d="M15.17,113.11A15.17,15.17,0,0,1,4.44,87.218l82.7-82.767A15.168,15.168,0,1,1,108.6,25.893L25.9,108.661a15.121,15.121,0,0,1-10.73,4.449" transform="translate(1723.96 889.897)" fill="#f7f7f7"/>
                  <line id="Line_125" data-name="Line 125" x1="116.426" y2="11.385" transform="translate(1941.862 899.376)" fill="#f7f7f7"/>
                  <path id="Path_2866" data-name="Path 2866" d="M15.153,41.73a15.17,15.17,0,0,1-1.459-30.268L130.119.077a15.17,15.17,0,0,1,2.954,30.2L16.648,41.657q-.754.073-1.495.073" transform="translate(1926.689 884.202)" fill="#f7f7f7"/>
                  <line id="Line_126" data-name="Line 126" x2="79.463" y2="85.92" transform="translate(1935.168 1064.377)" fill="#f7f7f7"/>
                  <path id="Path_2867" data-name="Path 2867" d="M94.637,116.261a15.128,15.128,0,0,1-11.142-4.87L4.032,25.469a15.17,15.17,0,0,1,22.276-20.6l79.462,85.92a15.17,15.17,0,0,1-11.133,25.47" transform="translate(1919.999 1049.207)" fill="#f7f7f7"/>
                  <line id="Line_127" data-name="Line 127" x2="79.465" y2="85.922" transform="translate(1551.165 978.783)" fill="#f7f7f7"/>
                  <path id="Path_2868" data-name="Path 2868" d="M94.637,116.261a15.128,15.128,0,0,1-11.142-4.87L4.032,25.469a15.17,15.17,0,0,1,22.276-20.6l79.463,85.92a15.17,15.17,0,0,1-11.134,25.47" transform="translate(1535.995 963.613)" fill="#f7f7f7"/>
                  <line id="Line_128" data-name="Line 128" x2="79.463" y2="85.922" transform="translate(1635.384 687.18)" fill="#f7f7f7"/>
                  <path id="Path_2869" data-name="Path 2869" d="M94.637,116.262a15.128,15.128,0,0,1-11.142-4.87L4.032,25.47a15.17,15.17,0,0,1,22.276-20.6l79.463,85.92a15.17,15.17,0,0,1-11.134,25.471" transform="translate(1620.213 672.008)" fill="#f7f7f7"/>
                  <line id="Line_129" data-name="Line 129" x2="20.477" y2="115.2" transform="translate(637.504 154.452)" fill="#f7f7f7"/>
                  <path id="Path_2870" data-name="Path 2870" d="M35.63,145.546a15.178,15.178,0,0,1-14.919-12.518L.237,17.828a15.17,15.17,0,0,1,29.871-5.309l20.475,115.2A15.171,15.171,0,0,1,38.3,145.31a15.351,15.351,0,0,1-2.672.236" transform="translate(622.331 139.279)" fill="#f7f7f7"/>
                  <line id="Line_130" data-name="Line 130" x2="20.477" y2="115.2" transform="translate(1767.935 1189.059)" fill="#f7f7f7"/>
                  <path id="Path_2871" data-name="Path 2871" d="M35.633,145.546a15.18,15.18,0,0,1-14.921-12.518L.237,17.828a15.17,15.17,0,0,1,29.871-5.309l20.475,115.2A15.168,15.168,0,0,1,38.3,145.31a15.343,15.343,0,0,1-2.67.236" transform="translate(1752.763 1173.885)" fill="#f7f7f7"/>
                  <line id="Line_131" data-name="Line 131" x1="57.352" y2="101.959" transform="translate(652.224 480.562)" fill="#f7f7f7"/>
                  <path id="Path_2872" data-name="Path 2872" d="M15.159,132.3A15.175,15.175,0,0,1,1.951,109.692L59.3,7.733A15.17,15.17,0,0,1,85.748,22.606L28.394,124.565A15.165,15.165,0,0,1,15.159,132.3" transform="translate(637.051 465.392)" fill="#f7f7f7"/>
                  <line id="Line_132" data-name="Line 132" x1="57.352" y2="101.959" transform="translate(288.811 773.626)" fill="#f7f7f7"/>
                  <path id="Path_2873" data-name="Path 2873" d="M15.159,132.3A15.178,15.178,0,0,1,1.951,109.689L59.3,7.732A15.17,15.17,0,0,1,85.746,22.6L28.394,124.562A15.163,15.163,0,0,1,15.159,132.3" transform="translate(273.638 758.457)" fill="#f7f7f7"/>
                  <line id="Line_133" data-name="Line 133" x1="57.352" y2="101.959" transform="translate(470.084 702.879)" fill="#f7f7f7"/>
                  <path id="Path_2874" data-name="Path 2874" d="M15.159,132.3A15.175,15.175,0,0,1,1.951,109.693L59.3,7.734A15.17,15.17,0,0,1,85.748,22.607L28.394,124.566A15.165,15.165,0,0,1,15.159,132.3" transform="translate(454.912 687.709)" fill="#f7f7f7"/>
                  <line id="Line_134" data-name="Line 134" x2="114.351" y2="24.917" transform="translate(741.485 766.031)" fill="#f7f7f7"/>
                  <path id="Path_2875" data-name="Path 2875" d="M129.538,55.267a15.163,15.163,0,0,1-3.245-.351L11.943,30A15.169,15.169,0,1,1,18.4.355L132.752,25.274a15.17,15.17,0,0,1-3.214,29.992" transform="translate(726.313 750.855)" fill="#f7f7f7"/>
                  <line id="Line_135" data-name="Line 135" x2="82.767" y2="82.704" transform="translate(1011.485 838.815)" fill="#f7f7f7"/>
                  <path id="Path_2876" data-name="Path 2876" d="M97.938,113.046a15.11,15.11,0,0,1-10.721-4.44L4.449,25.9A15.169,15.169,0,0,1,25.892,4.44l82.767,82.706a15.17,15.17,0,0,1-10.721,25.9" transform="translate(996.316 823.644)" fill="#f7f7f7"/>
                  <line id="Line_136" data-name="Line 136" x2="72.562" y2="91.789" transform="translate(1294.154 826.398)" fill="#f7f7f7"/>
                  <path id="Path_2877" data-name="Path 2877" d="M87.744,122.13a15.142,15.142,0,0,1-11.91-5.761L3.272,24.58a15.169,15.169,0,1,1,23.8-18.817L99.633,97.553A15.169,15.169,0,0,1,87.744,122.13" transform="translate(1278.984 811.227)" fill="#f7f7f7"/>
                  <line id="Line_137" data-name="Line 137" x2="11.385" y2="116.426" transform="translate(1005.793 602.36)" fill="#f7f7f7"/>
                  <path id="Path_2878" data-name="Path 2878" d="M26.538,146.769a15.168,15.168,0,0,1-15.08-13.693L.073,16.647A15.168,15.168,0,1,1,30.266,13.7L41.651,130.121A15.165,15.165,0,0,1,28.033,146.7q-.754.073-1.495.073" transform="translate(990.623 587.188)" fill="#f7f7f7"/>
                  <line id="Line_138" data-name="Line 138" y1="79.463" x2="85.92" transform="translate(1170.794 646.017)" fill="#f7f7f7"/>
                  <path id="Path_2879" data-name="Path 2879" d="M15.175,109.8A15.17,15.17,0,0,1,4.87,83.5L90.79,4.033a15.171,15.171,0,0,1,20.6,22.276l-85.92,79.463a15.113,15.113,0,0,1-10.3,4.032" transform="translate(1155.625 630.846)" fill="#f7f7f7"/>
                  <line id="Line_139" data-name="Line 139" y1="79.463" x2="85.92" transform="translate(1085.2 1030.02)" fill="#f7f7f7"/>
                  <path id="Path_2880" data-name="Path 2880" d="M15.175,109.8A15.171,15.171,0,0,1,4.868,83.5L90.793,4.033a15.171,15.171,0,0,1,20.6,22.276L25.471,105.772a15.122,15.122,0,0,1-10.3,4.032" transform="translate(1070.031 1014.847)" fill="#f7f7f7"/>
                  <line id="Line_140" data-name="Line 140" y1="79.463" x2="85.922" transform="translate(793.596 945.802)" fill="#f7f7f7"/>
                  <path id="Path_2881" data-name="Path 2881" d="M15.175,109.8A15.17,15.17,0,0,1,4.87,83.5L90.792,4.034a15.171,15.171,0,0,1,20.6,22.276L25.471,105.773a15.114,15.114,0,0,1-10.3,4.032" transform="translate(778.427 930.628)" fill="#f7f7f7"/>
                  <line id="Line_141" data-name="Line 141" y1="20.477" x2="115.2" transform="translate(861.903 466.672)" fill="#f7f7f7"/>
                  <path id="Path_2882" data-name="Path 2882" d="M15.156,50.82a15.171,15.171,0,0,1-2.639-30.107L127.72.236A15.168,15.168,0,1,1,133.026,30.1L17.828,50.584a15.386,15.386,0,0,1-2.672.236" transform="translate(846.73 451.502)" fill="#f7f7f7"/>
                  <line id="Line_142" data-name="Line 142" x2="101.959" y2="57.352" transform="translate(1188.013 415.077)" fill="#f7f7f7"/>
                  <path id="Path_2883" data-name="Path 2883" d="M117.117,87.7a15.092,15.092,0,0,1-7.423-1.951L7.739,28.394A15.17,15.17,0,1,1,22.61,1.949L124.569,59.3A15.172,15.172,0,0,1,117.117,87.7" transform="translate(1172.84 399.904)" fill="#f7f7f7"/>
                  <line id="Line_143" data-name="Line 143" x2="101.959" y2="57.352" transform="translate(1481.077 778.49)" fill="#f7f7f7"/>
                  <path id="Path_2884" data-name="Path 2884" d="M117.119,87.693a15.092,15.092,0,0,1-7.423-1.951L7.737,28.392A15.17,15.17,0,0,1,22.61,1.947L124.569,59.3a15.172,15.172,0,0,1-7.45,28.394" transform="translate(1465.903 763.32)" fill="#f7f7f7"/>
                  <line id="Line_144" data-name="Line 144" x2="101.959" y2="57.352" transform="translate(1410.331 597.216)" fill="#f7f7f7"/>
                  <path id="Path_2885" data-name="Path 2885" d="M117.117,87.7a15.07,15.07,0,0,1-7.423-1.953L7.737,28.392A15.169,15.169,0,1,1,22.61,1.949L124.567,59.3a15.172,15.172,0,0,1-7.45,28.394" transform="translate(1395.158 582.046)" fill="#f7f7f7"/>
                  <line id="Line_145" data-name="Line 145" x2="43.82" y2="108.52" transform="translate(1841.683 135.673)" fill="#f7f7f7"/>
                  <path id="Path_2886" data-name="Path 2886" d="M59,138.865a15.172,15.172,0,0,1-14.07-9.5L1.108,20.851A15.169,15.169,0,0,1,29.239,9.491l43.82,108.52A15.182,15.182,0,0,1,59,138.865" transform="translate(1826.509 120.503)" fill="#f7f7f7"/>
                  <line id="Line_146" data-name="Line 146" x1="21.716" y2="114.973" transform="translate(1911.91 399.763)" fill="#f7f7f7"/>
                  <path id="Path_2887" data-name="Path 2887" d="M15.19,145.322A15.185,15.185,0,0,1,.267,127.334L21.985,12.361A15.169,15.169,0,0,1,51.8,17.994L30.078,132.967A15.175,15.175,0,0,1,15.19,145.322" transform="translate(1896.737 384.586)" fill="#f7f7f7"/>
                  <line id="Line_147" data-name="Line 147" x1="89.787" y2="74.985" transform="translate(2036.009 261.873)" fill="#f7f7f7"/>
                  <path id="Path_2888" data-name="Path 2888" d="M15.178,105.327A15.17,15.17,0,0,1,5.447,78.514L95.236,3.527a15.169,15.169,0,0,1,19.445,23.288L24.892,101.8a15.094,15.094,0,0,1-9.714,3.527" transform="translate(2020.839 246.702)" fill="#f7f7f7"/>
                  <line id="Line_148" data-name="Line 148" x2="114.056" y2="26.236" transform="translate(1656.838 324.748)" fill="#f7f7f7"/>
                  <path id="Path_2889" data-name="Path 2889" d="M129.241,56.579a15.253,15.253,0,0,1-3.413-.388L11.774,29.958A15.17,15.17,0,0,1,18.573.389L132.627,26.622a15.172,15.172,0,0,1-3.386,29.957" transform="translate(1641.665 309.576)" fill="#f7f7f7"/>
                  <line id="Line_149" data-name="Line 149" y1="10.042" x2="116.549" transform="translate(1580.77 477.069)" fill="#f7f7f7"/>
                  <path id="Path_2890" data-name="Path 2890" d="M15.154,40.383A15.17,15.17,0,0,1,13.869,10.1L130.419.057a15.17,15.17,0,1,1,2.606,30.228L16.475,40.328c-.445.037-.884.055-1.321.055" transform="translate(1565.598 461.899)" fill="#f7f7f7"/>
                  <line id="Line_150" data-name="Line 150" y1="10.042" x2="116.549" transform="translate(1420.208 367.136)" fill="#f7f7f7"/>
                  <path id="Path_2891" data-name="Path 2891" d="M15.154,40.385A15.17,15.17,0,0,1,13.869,10.1L130.419.059a15.17,15.17,0,1,1,2.606,30.228L16.475,40.329c-.446.038-.884.055-1.321.055" transform="translate(1405.036 351.964)" fill="#f7f7f7"/>
                  <line id="Line_151" data-name="Line 151" x2="11.385" y2="116.426" transform="translate(946.124 202.455)" fill="#f7f7f7"/>
                  <path id="Path_2892" data-name="Path 2892" d="M26.538,146.767a15.168,15.168,0,0,1-15.08-13.693L.073,16.646a15.168,15.168,0,1,1,30.193-2.952L41.651,130.12a15.165,15.165,0,0,1-13.618,16.575q-.754.073-1.495.073" transform="translate(930.954 187.286)" fill="#f7f7f7"/>
                  <line id="Line_152" data-name="Line 152" y1="79.463" x2="85.92" transform="translate(1111.125 246.111)" fill="#f7f7f7"/>
                  <path id="Path_2893" data-name="Path 2893" d="M15.175,109.8A15.17,15.17,0,0,1,4.87,83.5L90.793,4.033a15.171,15.171,0,0,1,20.6,22.276L25.471,105.772a15.114,15.114,0,0,1-10.3,4.032" transform="translate(1095.953 230.94)" fill="#f7f7f7"/>
                  <line id="Line_153" data-name="Line 153" y1="20.477" x2="115.2" transform="translate(802.234 66.766)" fill="#f7f7f7"/>
                  <path id="Path_2894" data-name="Path 2894" d="M15.155,50.822a15.17,15.17,0,0,1-2.637-30.107L127.719.238a15.168,15.168,0,0,1,5.309,29.869L17.828,50.586a15.347,15.347,0,0,1-2.672.236" transform="translate(787.062 51.593)" fill="#f7f7f7"/>
                  <line id="Line_154" data-name="Line 154" x2="101.959" y2="57.352" transform="translate(1128.345 15.171)" fill="#f7f7f7"/>
                  <path id="Path_2895" data-name="Path 2895" d="M117.119,87.7a15.092,15.092,0,0,1-7.423-1.951L7.737,28.393A15.17,15.17,0,0,1,22.61,1.948L124.569,59.3a15.172,15.172,0,0,1-7.45,28.394" transform="translate(1113.171 0.001)" fill="#f7f7f7"/>
                  <line id="Line_155" data-name="Line 155" x2="101.959" y2="57.352" transform="translate(1350.662 197.31)" fill="#f7f7f7"/>
                  <path id="Path_2896" data-name="Path 2896" d="M117.119,87.7a15.092,15.092,0,0,1-7.423-1.951L7.737,28.394A15.17,15.17,0,0,1,22.61,1.949L124.569,59.3a15.172,15.172,0,0,1-7.45,28.394" transform="translate(1335.489 182.14)" fill="#f7f7f7"/>
                  <line id="Line_156" data-name="Line 156" x2="11.385" y2="116.426" transform="translate(1220.202 1405.267)" fill="#f7f7f7"/>
                  <path id="Path_2897" data-name="Path 2897" d="M26.536,146.768a15.17,15.17,0,0,1-15.08-13.693L.073,16.647a15.168,15.168,0,0,1,30.193-2.952L41.649,130.121A15.167,15.167,0,0,1,28.03,146.7q-.754.073-1.495.073" transform="translate(1205.033 1390.095)" fill="#f7f7f7"/>
                  <line id="Line_157" data-name="Line 157" y1="79.463" x2="85.92" transform="translate(1385.203 1448.924)" fill="#f7f7f7"/>
                  <path id="Path_2898" data-name="Path 2898" d="M15.175,109.806A15.17,15.17,0,0,1,4.87,83.5L90.793,4.033a15.171,15.171,0,0,1,20.6,22.276L25.471,105.774a15.114,15.114,0,0,1-10.3,4.032" transform="translate(1370.032 1433.751)" fill="#f7f7f7"/>
                  <line id="Line_158" data-name="Line 158" y1="20.477" x2="115.2" transform="translate(1076.313 1269.578)" fill="#f7f7f7"/>
                  <path id="Path_2899" data-name="Path 2899" d="M15.155,50.823a15.171,15.171,0,0,1-2.637-30.107L127.719.24a15.169,15.169,0,0,1,5.311,29.869L17.828,50.588a15.364,15.364,0,0,1-2.672.236" transform="translate(1061.139 1254.405)" fill="#f7f7f7"/>
                  <line id="Line_159" data-name="Line 159" x2="101.959" y2="57.352" transform="translate(1402.423 1217.983)" fill="#f7f7f7"/>
                  <path id="Path_2900" data-name="Path 2900" d="M117.117,87.7a15.092,15.092,0,0,1-7.423-1.951L7.737,28.394A15.17,15.17,0,0,1,22.61,1.949L124.567,59.3a15.172,15.172,0,0,1-7.45,28.394" transform="translate(1387.25 1202.813)" fill="#f7f7f7"/>
                  <line id="Line_160" data-name="Line 160" x2="101.959" y2="57.352" transform="translate(1695.486 1581.396)" fill="#f7f7f7"/>
                  <path id="Path_2901" data-name="Path 2901" d="M117.117,87.694a15.093,15.093,0,0,1-7.423-1.951L7.737,28.393A15.17,15.17,0,0,1,22.61,1.948L124.567,59.3a15.172,15.172,0,0,1-7.45,28.394" transform="translate(1680.313 1566.226)" fill="#f7f7f7"/>
                  <line id="Line_161" data-name="Line 161" x2="101.959" y2="57.352" transform="translate(1624.74 1400.123)" fill="#f7f7f7"/>
                  <path id="Path_2902" data-name="Path 2902" d="M117.119,87.693a15.09,15.09,0,0,1-7.423-1.951L7.737,28.392A15.17,15.17,0,0,1,22.61,1.947L124.569,59.3a15.171,15.171,0,0,1-7.45,28.394" transform="translate(1609.566 1384.954)" fill="#f7f7f7"/>
                  <line id="Line_162" data-name="Line 162" x2="114.351" y2="24.917" transform="translate(120.402 1311.529)" fill="#f7f7f7"/>
                  <path id="Path_2903" data-name="Path 2903" d="M129.538,55.257a15.312,15.312,0,0,1-3.245-.351L11.943,29.989A15.169,15.169,0,1,1,18.4.348L132.752,25.265a15.17,15.17,0,0,1-3.214,29.992" transform="translate(105.228 1296.362)" fill="#f7f7f7"/>
                  <line id="Line_163" data-name="Line 163" x2="82.767" y2="82.704" transform="translate(390.402 1384.312)" fill="#f7f7f7"/>
                  <path id="Path_2904" data-name="Path 2904" d="M97.938,113.046a15.11,15.11,0,0,1-10.721-4.44L4.449,25.9A15.169,15.169,0,0,1,25.892,4.44l82.768,82.706a15.17,15.17,0,0,1-10.721,25.9" transform="translate(375.231 1369.14)" fill="#f7f7f7"/>
                  <line id="Line_164" data-name="Line 164" x2="72.562" y2="91.789" transform="translate(673.07 1371.896)" fill="#f7f7f7"/>
                  <path id="Path_2905" data-name="Path 2905" d="M87.744,122.129a15.141,15.141,0,0,1-11.91-5.761L3.272,24.58a15.169,15.169,0,1,1,23.8-18.817L99.633,97.552a15.169,15.169,0,0,1-11.89,24.577" transform="translate(657.9 1356.725)" fill="#f7f7f7"/>
                  <line id="Line_165" data-name="Line 165" x2="11.385" y2="116.426" transform="translate(384.71 1147.858)" fill="#f7f7f7"/>
                  <path id="Path_2906" data-name="Path 2906" d="M26.538,146.766a15.168,15.168,0,0,1-15.08-13.693L.073,16.645a15.168,15.168,0,0,1,30.193-2.952L41.651,130.119a15.165,15.165,0,0,1-13.618,16.575q-.754.073-1.495.073" transform="translate(369.539 1132.688)" fill="#f7f7f7"/>
                  <line id="Line_166" data-name="Line 166" y1="79.463" x2="85.92" transform="translate(549.71 1191.515)" fill="#f7f7f7"/>
                  <path id="Path_2907" data-name="Path 2907" d="M15.175,109.806A15.17,15.17,0,0,1,4.87,83.5L90.792,4.033a15.171,15.171,0,0,1,20.6,22.276L25.471,105.774a15.113,15.113,0,0,1-10.3,4.032" transform="translate(534.54 1176.341)" fill="#f7f7f7"/>
                  <line id="Line_167" data-name="Line 167" y1="79.463" x2="85.92" transform="translate(464.116 1575.518)" fill="#f7f7f7"/>
                  <path id="Path_2908" data-name="Path 2908" d="M15.175,109.806A15.17,15.17,0,0,1,4.87,83.5L90.792,4.033a15.171,15.171,0,0,1,20.6,22.276L25.471,105.774a15.114,15.114,0,0,1-10.3,4.032" transform="translate(448.946 1560.345)" fill="#f7f7f7"/>
                  <line id="Line_168" data-name="Line 168" y1="79.463" x2="85.92" transform="translate(172.513 1491.299)" fill="#f7f7f7"/>
                  <path id="Path_2909" data-name="Path 2909" d="M15.175,109.807A15.17,15.17,0,0,1,4.87,83.5L90.793,4.034a15.171,15.171,0,0,1,20.6,22.276L25.471,105.775a15.114,15.114,0,0,1-10.3,4.032" transform="translate(157.342 1476.126)" fill="#f7f7f7"/>
                  <line id="Line_169" data-name="Line 169" y1="20.477" x2="115.2" transform="translate(240.82 1012.169)" fill="#f7f7f7"/>
                  <path id="Path_2910" data-name="Path 2910" d="M15.156,50.822a15.17,15.17,0,0,1-2.637-30.107L127.719.238a15.168,15.168,0,0,1,5.309,29.869L17.828,50.586a15.339,15.339,0,0,1-2.672.236" transform="translate(225.649 996.997)" fill="#f7f7f7"/>
                  <line id="Line_170" data-name="Line 170" x2="101.959" y2="57.352" transform="translate(566.93 960.574)" fill="#f7f7f7"/>
                  <path id="Path_2911" data-name="Path 2911" d="M117.119,87.694a15.093,15.093,0,0,1-7.423-1.951L7.737,28.393A15.17,15.17,0,0,1,22.61,1.948L124.569,59.3a15.172,15.172,0,0,1-7.45,28.394" transform="translate(551.758 945.405)" fill="#f7f7f7"/>
                  <line id="Line_171" data-name="Line 171" x2="101.959" y2="57.352" transform="translate(859.994 1323.988)" fill="#f7f7f7"/>
                  <path id="Path_2912" data-name="Path 2912" d="M117.119,87.7a15.093,15.093,0,0,1-7.423-1.951L7.737,28.393A15.17,15.17,0,0,1,22.61,1.948L124.569,59.3a15.171,15.171,0,0,1-7.45,28.394" transform="translate(844.819 1308.817)" fill="#f7f7f7"/>
                  <line id="Line_172" data-name="Line 172" x2="101.959" y2="57.352" transform="translate(789.247 1142.714)" fill="#f7f7f7"/>
                  <path id="Path_2913" data-name="Path 2913" d="M117.117,87.694a15.1,15.1,0,0,1-7.423-1.951L7.737,28.393A15.17,15.17,0,0,1,22.609,1.948L124.566,59.3a15.171,15.171,0,0,1-7.45,28.394" transform="translate(774.074 1127.542)" fill="#f7f7f7"/>
                </g>
              </g>
            </g>
          </g>
        </g>
      </g>
    </g>
  </g>
</svg>
